<svg version="1" xmlns="http://www.w3.org/2000/svg" width="1760" height="1760" viewBox="0 0 1320.000000 1320.000000"><path d="M1047.8 225.1c-42.8 5.3-80.5 30.5-102.1 68.4-13.2 23-19.5 52.3-16.9 78.3 3.3 33.7 16.3 61.3 39.9 84.8 18.6 18.7 43.3 31.7 70.1 37.1 12 2.4 38.4 2.4 50.4 0 55.4-11.1 97.4-53.2 108.5-108.7 2.4-12 2.4-38.5 0-50-2.7-12.6-8.2-28.4-13.3-38-19.6-36.8-54.6-62.7-95.4-70.5-10.5-2-31-2.7-41.2-1.4zM891 247.7c-58.9 3.2-116.2 10.4-169 21.2-8 1.7-20 4.1-26.7 5.5-28 5.8-79.4 20.4-118.8 33.8-187.6 63.5-345.1 171.5-425 291.3-33.7 50.5-51.9 97-57.5 146.9-3.8 33.5 1 60.1 16.5 92.1 20.8 42.8 58.6 81.5 108.2 110.8 13.4 7.9 25.3 14 26 13.3.3-.3 2-3.9 3.8-8.1 3-6.8 9-17.6 13-23 1.4-1.9 1.1-2.2-4.3-5.4-48.9-28.8-86.5-69.3-105.1-113.2-6.3-14.8-7.5-22.6-7.5-48.9-.1-24 1-34 5.8-54.3 19.9-84.3 84-169.5 182.4-242.5 115.1-85.5 264.6-147 424.2-174.6 39-6.7 85.3-11.8 119.5-13.2 8.8-.3 17.4-.7 19-.9 1.7-.1 7.6-.3 13.1-.4l10.2-.1.7-6.8c.4-3.7 1.7-10.6 2.9-15.5l2.2-8.7-14 .2c-7.8.1-16.6.3-19.6.5z"/><path d="M876.8 334.4c-.1.2-7.5.6-16.3 1-85.1 3.3-181.5 24.3-264.5 57.5-49.5 19.9-97.1 44.7-136.3 71.3l-5.8 3.9 5.8 4.3c5.7 4.2 13.2 11.7 16.5 16.5l1.7 2.4 15.8-10.6c78.7-52.6 172.7-88.8 274.3-105.6 39-6.5 72.3-9.3 112.2-9.5l25.8-.1v-5c0-2.8.7-9.5 1.5-14.9.8-5.5 1.5-10.3 1.5-10.8 0-.7-31.3-1.1-32.2-.4zM1201.9 430.8c-3.3 5.9-13.5 19.5-20.1 26.7l-5 5.5 5.9 6.8c23.4 26.7 37.9 57.7 42.4 90.2 1.6 12.1 1.4 35.6-.6 48.5-15.6 105.2-117.8 216.4-269 292.7-96 48.5-205.6 80.2-315.5 91.2-29.9 3-48.4 4-81 4l-33.6.1.3 14.5.3 14.5 13.3.6c37.6 1.8 69.7.4 114.2-5.1 114.6-14.1 223.5-46.6 322.9-96.2 68.7-34.4 128.7-75.3 179.1-122.4 86-80.3 129.6-171.2 120.1-250.4-2.7-23.1-7.5-39-18.1-60.5-12.5-25.3-22.4-38.3-45.8-60.3-3.1-2.8-5.9-5.2-6.4-5.2-.4 0-2 2.2-3.4 4.8zM385 458.7c-39.3 2.6-73.2 30.3-84.2 68.8-2 6.9-2.3 10.3-2.3 24.5s.3 17.6 2.3 24.5c9 31.4 32 55.1 62.7 64.8 54.5 17.2 111.4-18.7 120.2-75.8 5.9-39.2-14.5-78.8-49.8-96.6-15.5-7.7-32.5-11.3-48.9-10.2z"/><path d="M815.5 462.6c-102.9 7.8-199 45.4-261.5 102.2-24.3 22.1-40.1 43-50.2 66.5-17.2 39.9-8.4 78.7 23.9 104.6 43.7 35.2 122.4 45.7 198.3 26.6 32.1-8.1 62.6-21.1 85.9-36.7 12.9-8.6 18.3-12.9 28.4-22.7 27-26.1 37.4-52.1 29.8-74.4-6.8-19.7-26.9-33.4-57.6-39.4-12.1-2.3-37.4-2.3-50.4.1-25.7 4.7-50.6 16.6-62.9 30-8.5 9.4-12.6 21.2-10.8 30.9.9 5 7.2 11.1 13.7 13.3 7.1 2.4 22.6 2.7 22 .4-2-8.2-.9-15.1 3.8-22.8 4.9-8.2 7.8-10.7 18.3-16 12.7-6.4 22.3-8.1 35.7-6.2 20.9 2.8 34.2 11.1 38.5 23.7 5 14.5-1.7 30.8-19.9 48.8-24.8 24.6-63.5 41.6-109 47.9-17.9 2.4-46.6 1.4-64.8-2.4-78-16.1-102.9-70.8-59.9-131.4 8-11.3 29.5-32.5 43.7-43.1 46.4-34.8 105.7-57.6 173-66.6 14.1-1.9 21.7-2.3 44.5-2.3 28.9-.1 39.4.7 62.5 5 49.6 9 91.5 31.3 112.8 59.9 20.9 28 25.5 62 13.2 98.1-14.7 43.1-53.6 87.3-110 124.9-69 46.1-151.7 74.4-247 84.7-18.9 2-84.3 1.7-102-.5-77.7-9.7-136-33.5-173.6-70.7-17.5-17.4-27.5-32.6-34.8-53.3-6.4-18.3-8.5-35.3-6.9-56.2.8-9.8 4.3-28.4 6.4-34 .3-.7-2.3-2.3-6.3-4-8.7-3.8-19.5-11-25.8-17.4-2.7-2.8-5.3-5.1-5.7-5.1-1.7 0-10.6 23.5-14.3 37.6-6.7 25.9-7.5 55.8-2 77.7 11 43.4 37.3 77.7 81 105.4 71.7 45.5 183.7 63.7 299.5 48.7 107.6-13.9 210.1-53.9 287.5-112.2 86-64.8 126.6-144.5 105.9-207.9-19-58.3-83.6-98.3-177.4-109.8-12.8-1.6-62.9-2.8-75.5-1.9zM372.5 878.6c-14.2 2-19.2 3-27.5 5.6-39.6 12.6-70.9 43.9-83.3 83.4-9.4 29.7-7 64.3 6.2 92 6.9 14.4 12.8 23 23.7 34.3 24.9 26 55.7 39.1 91.8 39.1 21.9 0 39.5-4.2 58.5-14 56.5-29.1 83-96.3 61.6-156-15.2-42.3-51.3-73.4-95.8-82.5-7.7-1.5-29.4-2.7-35.2-1.9z"/></svg>