<svg xmlns="http://www.w3.org/2000/svg" viewBox="0 0 2000 2000" width="2000" height="2000"><path d="M1282 1619l-35-1c-55-234-606-207-632 1h-33c16-259 671-276 700 0zm-178-193c-5-215 377-362 593-139l-16 39c-189-203-542-88-545 102-10 1-12 0-32-2zm-377-215c-201-35-342 4-436 52-3 0-18-36-16-39 153-88 353-78 451-60a208 208 0 01206-178c101 0 165 76 179 101-26-90-6-186 65-261 37-102 117-190 251-191 134 0 230 85 256 216 56 60 74 135 72 190-7 69-9 96-75 176-70-55-76-91-93-120-130 96-281 36-313 2-16 45-40 88-69 115-25-13-47-45-75-80 32 141-68 258-198 260-130 1-191-103-205-183zm205 139c132 3 211-159 123-261-87 55-165 52-246 0-91 109-9 258 123 261zm706-499c-31-24-58-52-73-72a273 273 0 01-281-3c-25 47-45 69-68 90-9 123 70 237 215 240 146 4 227-142 207-255zM581 610c339-1 336 511-1 512s-339-512 1-512zm-2 469c106 0 237-96 211-254-35-26-51-43-74-73-95 57-208 42-280-3-23 33-39 55-67 81a214 214 0 00210 249z"/><path fill="#e01e25" d="M999 2a999 999 0 10999 1006 122 122 0 000-3v-5a122 122 0 000-1A999 999 0 00999 2zm0 244a754 754 0 01755 753 122 122 0 000 1 754 754 0 11-755-754z"/></svg>
