<svg xmlns='http://www.w3.org/2000/svg' style='display:none;'>
  <symbol id='logoback' viewBox='0 0 1477 1034'>
    <path fill-rule='evenodd' d='M340.8 786.4c-285.5-161.6-5.2-448.9 196.7-539.8 121.4-54.7 226.4-99 459.5-111.5a79.7 79.7 0 016-31.8C343.6 127-64 643.5 322.5 820.5c0 0 4.4-12 8-18.6 3.6-6.8 10.3-15.5 10.3-15.5zM388.5 481c-96.7 200.8 199.7 393.4 591.3 196.5 135.6-68.2 227.3-224.1 129.5-300.7C943 246.6 598.9 356.6 573.9 515.2c-26.9 170.7 414.4 126.7 373-32.7-14.3-55.2-178.5-51.7-180.8 22.4-.6 17.9 11.7 16.8 20 18.1 22.3 3.8 15.8.5 15.5-8-1.8-42 90.8-48.8 96.4-18.1 14.4 79.5-183.7 116.5-237.5 81.4C518 485.2 765 345.9 932.8 351.8c232.8 8.1 236 182.7 22.9 304.8-212.6 121.7-589.2 85.8-529-149.4 0 0-16.3-7.2-22.6-11.6-6.4-4.4-15.6-14.6-15.6-14.6zm167.7-132c128.1-93.6 288.5-128.4 428.4-126.2 0 0-.1-9.6.3-15 .5-5.5 2.8-16.8 2.8-16.8A809.3 809.3 0 00531 325c13.4 9.4 10.1 7.4 18.9 15.8m704.7-21.3C1464 581.8 974.3 871.2 602.6 853c2.5 14.6 1.6 19.8.3 30 345-2 618.4-144.2 731.2-357.9 32-60.4 38.4-165.6-51.2-243.2 0 0-7.4 13.6-12.3 20-4.9 6.5-16 17.6-16 17.6z'/>
  </symbol>
  <symbol id='logo1' viewBox='0 0 2000 2000'>
    <path class='logo-inside' d='M1282 1619l-35-1c-55-234-606-207-632 1h-33c16-259 671-276 700 0zm-178-193c-5-215 377-362 593-139l-16 39c-189-203-542-88-545 102-10 1-12 0-32-2zm-377-215c-201-35-342 4-436 52-3 0-18-36-16-39 153-88 353-78 451-60a208 208 0 01206-178c101 0 165 76 179 101-26-90-6-186 65-261 37-102 117-190 251-191 134 0 230 85 256 216 56 60 74 135 72 190-7 69-9 96-75 176-70-55-76-91-93-120-130 96-281 36-313 2-16 45-40 88-69 115-25-13-47-45-75-80 32 141-68 258-198 260-130 1-191-103-205-183zm205 139c132 3 211-159 123-261-87 55-165 52-246 0-91 109-9 258 123 261zm706-499c-31-24-58-52-73-72a273 273 0 01-281-3c-25 47-45 69-68 90-9 123 70 237 215 240 146 4 227-142 207-255zM581 610c339-1 336 511-1 512s-339-512 1-512zm-2 469c106 0 237-96 211-254-35-26-51-43-74-73-95 57-208 42-280-3-23 33-39 55-67 81a214 214 0 00210 249z'/>
    <path fill='#e01e25' d='M999 2a999 999 0 10999 1006 122 122 0 000-3v-5a122 122 0 000-1A999 999 0 00999 2zm0 244a754 754 0 01755 753 122 122 0 000 1 754 754 0 11-755-754z'/>
  </symbol>
  <symbol id='logo2' viewBox='0 0 2000 2000'>
    <path fill='none' stroke='#3672bb' stroke-linecap='round' stroke-width='221.6' d='M1889 1001a888 888 0 01-887 888 888 888 0 01-888-887 888 888 0 01887-889 888 888 0 01888 887'/>
    <path class='logo-inside' d='M1011 1679c-401-6-536-596-198-847a288 288 0 01193-502c256-1 396 316 190 502 331 218 217 852-185 847zm241-193a396 396 0 01-495-1c119 175 361 193 495 1zm77-189c-161 199-455 238-652-4 121 287 497 334 652 4zm-273 114a355 355 0 00211-123c27-33 64-96 64-109a547 547 0 00-19-90h-16a287 287 0 01-281-143c-4-8-9-15-10-15l-11 17a287 287 0 01-287 141l-12-1-4 12c-6 15-12 49-13 70l-1 16 11 21c13 26 31 53 47 74a367 367 0 00220 131c21 2 80 2 101-1zm143-754c-131-39-180-125-194-145-35 49-86 100-195 123 28 240 353 223 389 22zm-253 80h120c-32 26-111 18-120 0zm-7-68c-13-9-1-33 15-22 17 11-2 31-15 22zm116 0c-12-9 0-33 16-22 17 10-3 32-16 22zm-245-86c79-14 141-65 169-126l55-1c50 95 91 119 167 146-26-231-330-238-391-19z'/>
  </symbol>
  <symbol id='logo3' viewBox='0 0 751 752'>
    <path class='logo-inside' d='M386.3 256.1l109.3 69-.3 62.8-107.8-68.5 1 50.7 117.4 74.4.1 71.2L389.6 442l4.4 154.6-35.7-.3L363 442l-116.4 74.5-.3-71.5L365 369.8l1.4-47.8-103.6 65.6-.4-63.1 105.8-68.2 2-44.7-85.4 52.6-.1-52.2 91.7-59 90.8 57.8.2 53.3-82.4-52.7z'/><path fill='#0f6a36' d='M375.7 0a375.2 375.2 0 00-265.4 641.1 376.3 376.3 0 00531.6-.1A375.4 375.4 0 00375.7 0zm.4 122.3c140 0 252.5 113.4 252.5 254.4 0 141.1-108.5 250.5-248.5 250.5S122.6 518.8 122.6 377.7c0-141 113.5-255.4 253.5-255.4z'/>
  </symbol>
  <symbol id='logo0' viewBox='0 0 4 4'><path d='M4 2a2 2 0 01-2 2 2 2 0 01-2-2 2 2 0 012-2 2 2 0 012 2'/></symbol>
  <symbol id='logoname' viewBox="0 0 500 500"><path fill="#fff" d="M50.685 118.866H454.39v270.933H50.685z"/><path d="M250.003.005A249.995 249.995 0 00.006 250a249.995 249.995 0 00249.998 249.997A249.995 249.995 0 00500 250 249.995 249.995 0 00250.004.007zm85.067 124.206a30.404 30.404 0 0127.02 16.332l-11.283 5.84c-2.87-5.642-8.709-9.403-15.737-9.403-9.996 0-17.617 7.72-17.617 17.716 0 9.997 7.62 17.717 17.617 17.717 7.028 0 12.867-3.761 15.737-9.403l11.284 5.841a29.766 29.766 0 01-1.314 2.25l9.05-2.646c.494 3.067 2.774 5.246 5.743 5.246 3.266 0 5.837-2.673 5.837-6.236v-30.88h-19.496v-11.581h32.561v44.144c0 9.799-6.728 16.034-18.902 16.034-9.495 0-15.602-3.765-17.862-10.045a30.398 30.398 0 01-22.638 10.045c-16.826 0-30.484-13.66-30.484-30.486 0-16.825 13.658-30.485 30.484-30.485zm-277.61.793h35.732v11.482H70.525v12.471h19.399v11.482h-19.4v23.95H57.46zm35.947 0h13.065v37.907c0 6.039 5.045 10.691 11.577 10.691 6.633 0 11.68-4.652 11.68-10.69v-37.908h13.065v40.383c0 11.184-10.69 19.794-24.745 19.794-13.857 0-24.643-8.61-24.643-19.794v-40.382zm54.451 0h13.462l29.197 39.295v-39.295h12.965v59.385h-13.46l-29.1-39.39v39.39h-13.064zm61.086 0h19.597c16.33 0 29.693 13.263 29.693 29.692 0 16.43-13.363 29.693-29.693 29.693h-19.597zm65.142 0h14.646l21.382 59.385h-13.958l-3.66-11.184h-22.17l-3.663 11.184h-13.955l21.379-59.385zm139.11 0h14.65l21.378 59.385h-13.956l-3.663-11.184h-22.17l-3.662 11.184h-13.956zm-191.189 11.58v36.226h6.434c9.403 0 16.728-7.82 16.728-18.114 0-10.292-7.325-18.111-16.728-18.111h-6.432zm59.403 2.178l-7.622 23.558h15.243l-7.62-23.558zm139.11 0l-7.62 23.558h15.24zm-246.516 83.485c1.986 0 3.712 1.64 3.712 3.713 0 2.072-1.726 3.714-3.712 3.714-1.985 0-3.715-1.642-3.715-3.714 0-2.073 1.73-3.713 3.715-3.713zm-17.788 12.606h42.261l13.987 21.5 13.988-21.5h7.206l13.21 42.478 12.433-42.479h7.772l12.605 42.565 13.297-42.564h5.699l-16.148 51.804h-5.784l-13.557-45.933-13.296 45.933h-5.871l-14.471-46.187-14.32 21.58v24.607H209.7v-24.52l-17.746-26.706-27.967 45.701h29.357v5.525h-39.198l28.403-46.278h-26.334zm155.62 0h6.13l18.736 51.804h-6.044l-4.23-12.088h-23.053l-4.23 12.088h-6.043l18.735-51.804zm3.108 6.562l-9.756 27.888h19.427l-9.672-27.888zm93.48 46.412h6.216l-10.188 12.778h-3.627zm-185.04 16.576c5.618 0 10.368 2.544 13.283 5.873v-5.181h34.19v5.525h-14.333v46.279h-5.528V310.62H236.97c.073.088.16.17.23.259l-4.319 3.626c-2.072-2.934-5.352-4.574-9.323-4.574-4.836 0-9.067 2.502-9.067 7.683 0 12.345 25.21 8.03 25.21 25.643 0 9.065-7.164 14.332-15.97 14.332-7.685 0-14.162-4.144-16.838-10.532l5.007-2.937c1.814 4.75 6.045 7.943 11.917 7.943 5.784 0 10.36-3.108 10.36-8.635 0-12.863-25.212-8.72-25.212-25.384 0-8.46 6.477-13.64 14.42-13.64zm-157.338.692h18.562a14.39 14.39 0 0114.42 14.419c0 8.03-6.39 14.332-14.42 14.332H71.571v23.053h-5.525zm34.435 0h18.563c7.943 0 14.419 6.39 14.419 14.505 0 6.993-5.182 12.692-12.003 13.642l14.079 21.793 27.264-44.415h-26.334v-5.525h36.092l-28.32 46.278h29.354v5.526H130.44L115.762 333.5h-9.755v23.398h-5.526zm76.726 0h28.32v5.354h-22.795v17.872h19.86v5.353h-19.857v17.871h22.792v5.354h-28.319v-51.804zm94.411 0h18.564c7.942 0 14.419 6.39 14.419 14.505 0 6.993-5.18 12.692-12.001 13.642l14.078 21.793 27.264-44.415H307.61v-5.525h36.089l-28.318 46.278h29.354v5.526H301.58L286.903 333.5h-9.758v23.398h-5.526v-51.804zm76.727 0h28.32v5.354h-22.793v17.872h19.86v5.353h-19.86v17.871h22.793v5.354h-28.321v-51.804zm33.486 0h5.18l32.034 42.567v-42.567h5.44v51.804H419.3l-31.945-42.566V356.9h-5.525zm-310.26 5.354v18.132H84.09c5.18 0 9.413-3.283 9.413-8.981 0-5.526-4.233-9.15-9.413-9.15zm34.436.171v17.615h12.692c5.266 0 9.236-3.54 9.236-8.807 0-5.18-4.056-8.808-9.236-8.808zm171.136 0v17.615h12.692c5.267 0 9.24-3.54 9.24-8.807 0-5.18-4.06-8.808-9.24-8.808h-12.69z"/>
  </symbol>
</svg>
