<svg xmlns="http://www.w3.org/2000/svg" viewBox="0 0 2000 2000" width="2000" height="2000"><path fill="none" stroke="#3672bb" stroke-linecap="round" stroke-width="221.6" d="M1889 1001a888 888 0 01-887 888 888 888 0 01-888-887 888 888 0 01887-889 888 888 0 01888 887"/><path d="M1011 1679c-401-6-536-596-198-847a288 288 0 01193-502c256-1 396 316 190 502 331 218 217 852-185 847zm241-193a396 396 0 01-495-1c119 175 361 193 495 1zm77-189c-161 199-455 238-652-4 121 287 497 334 652 4zm-273 114a355 355 0 00211-123c27-33 64-96 64-109a547 547 0 00-19-90h-16a287 287 0 01-281-143c-4-8-9-15-10-15l-11 17a287 287 0 01-287 141l-12-1-4 12c-6 15-12 49-13 70l-1 16 11 21c13 26 31 53 47 74a367 367 0 00220 131c21 2 80 2 101-1zm143-754c-131-39-180-125-194-145-35 49-86 100-195 123 28 240 353 223 389 22zm-253 80h120c-32 26-111 18-120 0zm-7-68c-13-9-1-33 15-22 17 11-2 31-15 22zm116 0c-12-9 0-33 16-22 17 10-3 32-16 22zm-245-86c79-14 141-65 169-126l55-1c50 95 91 119 167 146-26-231-330-238-391-19z"/></svg>
