<svg xmlns="http://www.w3.org/2000/svg" viewBox="0 0 1477 1034" width="1477" height="1034"><path fill-rule="evenodd" d="M340.8 786.4c-285.5-161.6-5.2-448.9 196.7-539.8 121.4-54.7 226.4-99 459.5-111.5a79.7 79.7 0 016-31.8C343.6 127-64 643.5 322.5 820.5c0 0 4.4-12 8-18.6 3.6-6.8 10.3-15.5 10.3-15.5zM388.5 481c-96.7 200.8 199.7 393.4 591.3 196.5 135.6-68.2 227.3-224.1 129.5-300.7C943 246.6 598.9 356.6 573.9 515.2c-26.9 170.7 414.4 126.7 373-32.7-14.3-55.2-178.5-51.7-180.8 22.4-.6 17.9 11.7 16.8 20 18.1 22.3 3.8 15.8.5 15.5-8-1.8-42 90.8-48.8 96.4-18.1 14.4 79.5-183.7 116.5-237.5 81.4C518 485.2 765 345.9 932.8 351.8c232.8 8.1 236 182.7 22.9 304.8-212.6 121.7-589.2 85.8-529-149.4 0 0-16.3-7.2-22.6-11.6-6.4-4.4-15.6-14.6-15.6-14.6zm167.7-132c128.1-93.6 288.5-128.4 428.4-126.2 0 0-.1-9.6.3-15 .5-5.5 2.8-16.8 2.8-16.8A809.3 809.3 0 00531 325c13.4 9.4 10.1 7.4 18.9 15.8m704.7-21.3C1464 581.8 974.3 871.2 602.6 853c2.5 14.6 1.6 19.8.3 30 345-2 618.4-144.2 731.2-357.9 32-60.4 38.4-165.6-51.2-243.2 0 0-7.4 13.6-12.3 20-4.9 6.5-16 17.6-16 17.6z"/></svg>
