<svg xmlns="http://www.w3.org/2000/svg" viewBox="0 0 751 752" height="751" width="752"><path d="M386.3 256.1l109.3 69-.3 62.8-107.8-68.5 1 50.7 117.4 74.4.1 71.2L389.6 442l4.4 154.6-35.7-.3L363 442l-116.4 74.5-.3-71.5L365 369.8l1.4-47.8-103.6 65.6-.4-63.1 105.8-68.2 2-44.7-85.4 52.6-.1-52.2 91.7-59 90.8 57.8.2 53.3-82.4-52.7z"/><path fill="#0f6a36" d="M375.7 0a375.2 375.2 0 00-265.4 641.1 376.3 376.3 0 00531.6-.1A375.4 375.4 0 00375.7 0zm.4 122.3c140 0 252.5 113.4 252.5 254.4 0 141.1-108.5 250.5-248.5 250.5S122.6 518.8 122.6 377.7c0-141 113.5-255.4 253.5-255.4z"/></svg>
